<svg aria-hidden="true" style="position: absolute; width: 0; height: 0; overflow: hidden;" version="1.1" xmlns="http://www.w3.org/2000/svg" xmlns:xlink="http://www.w3.org/1999/xlink">
<defs>
<symbol id="icon-logo" viewBox="0 0 101 32">
      <path d="m19.323 7.547.017.014.176.146.141.118.625.52.001 14.512a843 843 0 0 1-10.04 8.163c-.214-.021-5.76-4.582-8.577-6.9l-.079-.065c-.722-.594-1.253-1.03-1.449-1.189L.128 8.351 10.158.133c.327.046 6.588 5.265 9.165 7.412zm-4.331 2.965-.011-.018-.002-.003-.016-.025c-1.648-2.667-4.536-7.339-4.783-7.516l-5.82 9.273.013 6.437 1.17 1.92c.512.073 1.029.157 1.548.24 1.052.17 2.111.341 3.155.428l1.393-.209a187 187 0 0 1 3.229-.469l1.174-1.823-.001-6.542c-.14-.22-.531-.853-1.05-1.692zm1.484 2.47a87 87 0 0 0-.02 3.572q.007.727.009 1.452l.62-1.005q.268-.428.534-.857l.203-.33.195-.319q-.073-.122-.146-.248a40 40 0 0 1-.293-.517c-.341-.608-.693-1.236-1.102-1.748M11.833 1.947c-.481-.423-1.072-.941-1.426-1.092l.011.476q.014.561.021 1.122 2.774 4.475 5.592 8.922c0-.091-.004-.234-.009-.409v-.029c-.022-.835-.063-2.354.15-2.578l.018-.017.032-.026.188.082c.145.66.11 1.69.079 2.607l-.001.013-.002.056c-.013.382-.024.742-.021 1.045q.372.619.754 1.236c.441.714.882 1.429 1.291 2.159l-2.042 3.278.005 2.101v1.618l3.386.002-.007-13.964a407 407 0 0 0-7.519-6.174l-.078-.064-.072-.06q-.16-.137-.35-.305zM9.919.881c-1.059.87-2.128 1.733-3.197 2.595C4.65 5.149 2.576 6.823.565 8.558L.552 22.51l3.376.005.007-1.866.008-1.885-2.01-3.297q.99-1.678 2.006-3.34l-.005-.231-.009-.32c-.031-1.036-.087-2.937.11-3.244l.131-.025c.124.094.172.152.193.312.076.573.045 1.305.016 1.986l-.011.273-.005.14q-.01.23-.011.439l5.649-9.015c.001-.116.01-.25.018-.393.024-.388.051-.837-.047-1.127L9.919.88zM7.752 21.34c-.635-.113-1.27-.226-1.901-.277l.488.784c1.302 2.089 2.607 4.184 3.852 6.305q.947-1.527 1.874-3.065.42-.676.834-1.356c.549-.896 1.098-1.793 1.666-2.676-.354.05-.774.123-1.222.2-1.111.192-2.389.412-3.225.39-.785-.021-1.575-.162-2.366-.303zm-3.401-.505c.001.698.014 1.396-.005 2.093l-1.023.002c-.808.002-1.616.005-2.424-.006l9.102 7.43a67 67 0 0 1-.017-1.706c-.884-1.5-1.798-2.982-2.712-4.464l-.017-.028-.003-.005c-.652-1.057-1.304-2.113-1.945-3.177zm11.453.032-.036.003-.662.102-4.681 7.619-.018 1.757a292 292 0 0 1 2.045-1.65 453 453 0 0 0 7.049-5.773l-3.456.004q.004-.232.015-.479l.001-.014c.021-.51.044-1.049-.058-1.513-.091-.068-.103-.067-.172-.058l-.027.003zM3.942 17.798l.009-.533c.026-1.345.075-3.976-.092-4.231l-.24.409-.245.41a37 37 0 0 0-.933 1.62q.155.255.313.51c.237.381.474.764.687 1.155l.5.817zm11.645 2.607c.196-.023.297-.056.545-.147.045-.206.064-.549.046-.801a5.4 5.4 0 0 0-.504.792zm-11.211-.861c-.018.252 0 .509.046.801.304.096.359.119.417.13.03.006.061.008.128.016-.183-.324-.355-.658-.591-.947"/>
      <path d="m14.991 10.512-.668-1.081.657 1.063zm1.039.863c0-.094-.004-.244-.009-.427v.009c.005.179.009.325.009.418m-11.668-.457q-.011.284-.015.539.003-.21.011-.439zm-.423 1.208c-.001-.116-.007-.31-.014-.551l.009.32zM16.048 22.83q.005-.193.014-.395l-.001.014q-.008.195-.013.381M3.859 13.035a35 35 0 0 1-.29.492l.05-.084zm.081 4.92c0-.164.008-.535.017-1.002l-.006.313c-.006.318-.011.564-.011.689m63.029 10.958v-.96h.975q.501 0 .86-.129.359-.115.602-.416c.243-.301.301-.478.416-.831l2.552-8.2h1.047l-2.666 8.501q-.23.73-.631 1.176-.402.46-.96.659c-.558.199-.798.201-1.276.201h-.918zm2.466-3.14v-.903h1.362v.903zm-.129 0-2.752-7.397h1.104l2.652 7.397zm-7.554.186v-7.584h.86v3.168h-.086q0-1.663.731-2.451.73-.803 2.294-.803h.244v.975h-.444q-1.233 0-1.878.645-.645.63-.645 1.864v4.186zm-3.718.001V15.495h1.075V25.96zm-1.104-9.591v-.874h2.179v.874zm-4.392 9.834q-.975 0-1.692-.33a3.4 3.4 0 0 1-1.176-.903 4 4 0 0 1-.688-1.276 5 5 0 0 1-.215-1.448v-.201q0-.73.215-1.434.23-.702.688-1.262c.458-.56.688-.669 1.147-.889q.702-.344 1.634-.344 1.19 0 1.978.53.803.531 1.204 1.362.401.818.401 1.763v.559h-6.781v-.831h6.035l-.272.416q0-.846-.301-1.477a2.2 2.2 0 0 0-.86-1.004q-.56-.373-1.405-.373-.89 0-1.477.416c-.587.416-.688.645-.889 1.104q-.287.689-.287 1.563 0 .86.287 1.577.301.702.903 1.118.617.416 1.548.416.989 0 1.606-.444.616-.459.76-1.075h1.004a2.9 2.9 0 0 1-.602 1.319q-.459.545-1.161.846c-.702.301-1.004.301-1.606.301zm-19.535.614q-.975 0-1.692-.33a3.4 3.4 0 0 1-1.176-.903 4 4 0 0 1-.688-1.276 5 5 0 0 1-.215-1.448v-.201q0-.73.215-1.434.23-.702.688-1.262c.458-.56.688-.669 1.147-.889q.702-.344 1.634-.344 1.19 0 1.978.53.803.531 1.204 1.362.402.818.401 1.763v.559h-6.781v-.831h6.035l-.272.416q0-.846-.301-1.477a2.2 2.2 0 0 0-.86-1.004q-.56-.373-1.405-.373-.89 0-1.477.416c-.587.416-.688.645-.889 1.104q-.287.689-.287 1.563 0 .86.287 1.577.301.702.903 1.118.617.416 1.548.416.989 0 1.606-.444.616-.459.76-1.075h1.004a2.9 2.9 0 0 1-.602 1.319q-.459.544-1.161.846c-.702.302-1.004.301-1.606.301zm-8.855 2.666v-.96h.86q.56 0 .846-.33.301-.315.301-.918v-8.286h1.032v8.085q0 .89-.244 1.419-.23.53-.745.76c-.515.23-.803.229-1.376.229zm.774-9.634v-.86h2.265v.86zm1.434-2.394q-.387 0-.588-.201-.186-.215-.186-.53c0-.315.062-.382.186-.516q.201-.215.588-.215c.387 0 .449.072.573.215q.186.201.186.516c0 .315-.062.387-.186.53q-.186.201-.573.201m69.305-2.853q-.975 0-1.692-.33a3.4 3.4 0 0 1-1.175-.903 4 4 0 0 1-.688-1.276 5 5 0 0 1-.215-1.448v-.201q0-.73.215-1.434.23-.702.688-1.262c.458-.56.688-.669 1.147-.889q.702-.344 1.634-.344 1.19 0 1.978.53.803.531 1.204 1.362.401.818.401 1.763v.559h-6.781v-.832h6.035l-.272.416q0-.846-.301-1.477a2.2 2.2 0 0 0-.86-1.004q-.56-.373-1.405-.373-.89 0-1.477.416c-.587.416-.688.645-.889 1.104q-.287.689-.287 1.563 0 .86.287 1.577.301.702.903 1.118.617.416 1.548.416.989 0 1.606-.444.616-.459.76-1.075h1.003a2.9 2.9 0 0 1-.602 1.319q-.459.544-1.161.846c-.702.302-1.004.301-1.606.301zm-9.714 0a3.75 3.75 0 0 1-1.52-.301 3.7 3.7 0 0 1-1.176-.86 4.2 4.2 0 0 1-.76-1.262 4.5 4.5 0 0 1-.258-1.52v-.201q0-.774.258-1.477.258-.716.731-1.262a3.5 3.5 0 0 1 2.695-1.205q.96 0 1.692.416c.732.416.879.679 1.176 1.204q.444.774.473 1.907l-.473-.889V3.891h1.075v10.465H89v-3.369h.344q-.028 1.19-.502 2.007a3 3 0 0 1-1.219 1.204 3.5 3.5 0 0 1-1.677.401zm.143-.946q.774 0 1.391-.344a2.5 2.5 0 0 0 .989-.975q.358-.645.358-1.477v-.688q0-.803-.358-1.405a2.5 2.5 0 0 0-.989-.96 2.84 2.84 0 0 0-1.405-.344q-.846 0-1.477.416a2.7 2.7 0 0 0-.96 1.104q-.33.702-.33 1.577 0 .903.344 1.606c.344.703.554.836.975 1.104q.63.387 1.462.387zm-6.656.703V12.08h-.172V9.385q0-.846-.444-1.29-.444-.459-1.376-.459-.43 0-.874.014-.43.015-.832.043-.387.015-.688.043V6.79l.645-.057q.33-.029.674-.029.358-.014.688-.014 1.16 0 1.864.287.717.286 1.047.903.33.602.33 1.606v4.874h-.86zm-2.566.2q-.803 0-1.419-.287c-.616-.287-.731-.468-.96-.832q-.33-.545-.33-1.319 0-.76.344-1.29.358-.53 1.018-.803.674-.287 1.62-.287h2.222v.817h-2.294q-.903 0-1.391.444-.473.43-.473 1.133 0 .717.502 1.147.502.416 1.362.416a2.8 2.8 0 0 0 1.018-.186q.487-.201.817-.659.33-.472.358-1.29l.315.444q-.057.846-.401 1.419-.344.56-.932.846c-.588.286-.851.287-1.376.287m-15.697-.2V6.761h.86v3.197h-.172q0-1.047.287-1.806.301-.76.889-1.176.588-.43 1.491-.43h.043q.903 0 1.491.416c.588.416.683.669.874 1.176q.287.76.287 1.821h-.344q0-1.047.287-1.806.301-.76.889-1.176.602-.43 1.505-.43h.043q.903 0 1.491.416.602.415.889 1.176.301.76.301 1.821v4.401h-1.075V9.716q0-1.003-.487-1.591c-.487-.588-.793-.588-1.405-.588q-.947 0-1.505.616-.545.602-.545 1.634v4.573H66.19V9.715q0-1.003-.487-1.591c-.487-.588-.793-.588-1.405-.588q-.947 0-1.505.616-.545.602-.545 1.634v4.573h-1.075zm-6.546.243a3.75 3.75 0 0 1-1.52-.301 3.7 3.7 0 0 1-1.176-.86 4.2 4.2 0 0 1-.76-1.262 4.5 4.5 0 0 1-.258-1.52v-.201q0-.774.258-1.477.258-.716.731-1.262a3.5 3.5 0 0 1 2.695-1.205q.96 0 1.692.416c.732.416.879.679 1.176 1.204q.444.774.473 1.907l-.473-.889V3.891h1.075v10.465h-.86v-3.369h.344q-.028 1.19-.502 2.007a3 3 0 0 1-1.219 1.204 3.5 3.5 0 0 1-1.677.401zm.143-.946q.774 0 1.391-.344.63-.343.989-.975.358-.645.358-1.477v-.688q0-.803-.358-1.405a2.5 2.5 0 0 0-.989-.96 2.84 2.84 0 0 0-1.405-.344q-.846 0-1.477.416a2.7 2.7 0 0 0-.961 1.104q-.33.702-.33 1.577 0 .903.344 1.606c.344.703.554.836.975 1.104q.63.387 1.462.387zm-12.211.703V6.775h.86v3.183h-.172q0-1.06.315-1.821c.315-.761.526-.898.946-1.176q.631-.416 1.591-.416h.043q1.434 0 2.136.903.702.89.702 2.509v4.401h-1.061V9.727q0-.989-.545-1.591c-.545-.602-.87-.602-1.52-.602q-1.004 0-1.62.631-.602.617-.602 1.634v4.559h-1.075zm-3.402 0V12.08h-.172V9.385q0-.846-.444-1.29-.444-.459-1.376-.459-.43 0-.874.014-.43.015-.831.043-.387.015-.688.043V6.79l.645-.057q.33-.029.674-.029.358-.014.688-.014 1.16 0 1.864.287.717.286 1.047.903.33.602.33 1.606v4.874h-.86zm-2.566.2q-.802 0-1.419-.287c-.617-.287-.731-.468-.961-.832q-.33-.545-.33-1.319 0-.76.344-1.29.358-.53 1.018-.803.673-.287 1.62-.287h2.222v.817h-2.294q-.903 0-1.391.444-.473.43-.473 1.133 0 .717.502 1.147.501.416 1.362.416a2.8 2.8 0 0 0 1.018-.186q.487-.201.817-.659.33-.472.358-1.29l.315.444q-.057.846-.401 1.419-.344.56-.932.846c-.588.286-.851.287-1.376.287zm-11.007-.201V3.893h1.075v5.921l-.315.244q0-1.061.301-1.849.315-.789.932-1.219.631-.444 1.577-.444h.057q1.377 0 2.079.903.717.903.717 2.509v4.401h-1.061V9.728q0-1.018-.559-1.606c-.559-.588-.875-.588-1.505-.588q-1.018 0-1.62.659-.602.645-.602 1.706v4.459zm14.927 11.376 1.504-6.816h1.398l1.744 6.816h-.865l-1.744-6.776h.319l-1.518 6.776zm-.573 0v-.812h1.211v.812zm-.239 0-2.037-7.042h.958l2.01 7.042h-.932zm4.819 0v-.812h1.185v.812zm.519 0 1.757-7.042h.919l-1.797 7.042z"/>
    </symbol>
</defs>
</svg>
