<svg xmlns="http://www.w3.org/2000/svg" aria-hidden="true" style="position:absolute;width:0;height:0;overflow:hidden">
  <defs>

    <symbol id="icon-star-fill" viewBox="0 0 24 24">
      <path fill="currentColor" d="M10.885.778a1.188 1.188 0 0 1 2.23 0l2.435 6.123c.173.437.567.736 1.018.774l6.32.53c1.07.09 1.504 1.487.688 2.218l-4.814 4.314a1.3 1.3 0 0 0-.39 1.252l1.472 6.45c.249 1.094-.888 1.957-1.804 1.372l-5.41-3.457a1.16 1.16 0 0 0-1.26 0l-5.41 3.457c-.916.585-2.053-.278-1.804-1.371l1.471-6.45a1.3 1.3 0 0 0-.389-1.253L.424 10.423c-.816-.73-.382-2.128.689-2.218l6.319-.53A1.21 1.21 0 0 0 8.45 6.9z"/>
    </symbol>
    <symbol id="icon-star" viewBox="0 0 24 24">
      <path stroke="currentColor" stroke-width="2" d="M12 1a.2.2 0 0 1 .099.028.24.24 0 0 1 .086.12L14.62 7.27a2.21 2.21 0 0 0 1.864 1.4l6.32.53c.049.004.078.02.101.04.029.025.06.068.08.13.038.125.006.235-.076.308l-4.814 4.313a2.3 2.3 0 0 0-.697 2.22l1.471 6.45c.032.14-.02.24-.096.297a.2.2 0 0 1-.097.041c-.018.001-.049 0-.098-.032l-5.41-3.456a2.16 2.16 0 0 0-2.336 0l-5.41 3.456c-.05.031-.08.033-.098.032a.2.2 0 0 1-.097-.041c-.075-.057-.128-.157-.096-.297l1.472-6.45a2.3 2.3 0 0 0-.698-2.22L1.091 9.68c-.081-.073-.114-.183-.075-.309a.3.3 0 0 1 .079-.129.17.17 0 0 1 .101-.04l6.32-.53a2.21 2.21 0 0 0 1.864-1.4l2.435-6.124a.24.24 0 0 1 .086-.119A.2.2 0 0 1 12 1Z"/>
    </symbol>
    <symbol id="icon-book" viewBox="0 0 32 32">
      <path d="M8 29.333h20v-2.667H8.016c-.616-.016-1.349-.26-1.349-1.333S7.4 24.016 8.016 24H28V5.333a2.67 2.67 0 0 0-2.667-2.667H8c-1.608 0-4 1.065-4 4v18.667c0 2.935 2.392 4 4 4M6.667 6.667C6.667 5.594 7.4 5.35 8 5.334h17.333v16H6.666z"/>
      <path d="M10.667 8h12v2.667h-12z"/>
    </symbol>
    <symbol id="icon-envelope" viewBox="0 0 32 32">
      <path d="M26.667 5.333H5.334A2.67 2.67 0 0 0 2.667 8v16a2.67 2.67 0 0 0 2.667 2.667h21.333A2.67 2.67 0 0 0 29.334 24V8a2.67 2.67 0 0 0-2.667-2.667m0 2.667v.681L16 16.978 5.333 8.682v-.683h21.333zM5.333 24V12.059l9.848 7.66a1.33 1.33 0 0 0 1.638 0l9.848-7.66L26.67 24z"/>
    </symbol>
    <symbol id="icon-facebook" viewBox="0 0 32 32">
      <path d="M29.333 16.405C29.333 8.996 23.364 2.99 16 2.99S2.667 8.996 2.667 16.405c0 6.696 4.876 12.245 11.25 13.252v-9.374h-3.385v-3.878h3.385V13.45c0-3.362 1.991-5.219 5.036-5.219 1.459 0 2.985.262 2.985.262v3.301h-1.681c-1.656 0-2.173 1.034-2.173 2.095v2.516h3.698l-.591 3.878h-3.107v9.374c6.374-1.006 11.25-6.556 11.25-13.252z"/>
    </symbol>
    <symbol id="icon-hand-with-heart" viewBox="0 0 32 32">
      <path d="M3.2 31.2h15.392a6.4 6.4 0 0 0 4.86-2.235l8.163-9.523a1.61 1.61 0 0 0 .329-1.468 1.6 1.6 0 0 0-1.035-1.091l-3.149-1.05a4.88 4.88 0 0 0-4.517.805l-5.096 4.075-.987-1.976a6.37 6.37 0 0 0-5.725-3.536H3.201a3.203 3.203 0 0 0-3.2 3.2v9.6c0 1.765 1.435 3.2 3.2 3.2zm0-12.8h8.234a3.18 3.18 0 0 1 2.862 1.768l.715 1.432H8v3.2h9.622c.246-.003.488-.064.707-.176l.005-.002.006-.003h.005l.003-.002h.006l.002-.002c.014.005.005-.002.005-.002.016 0 .003-.002.003-.002h.002l.003-.002.005-.002.006-.003.005-.002.003-.002c.005 0 .003-.002.003-.002l.005-.003.006-.003.005-.002.003-.002h.002l.003-.002.005-.002.003-.002c.014-.002.005-.002.005-.002l.003-.002q.093-.056.176-.125l6.634-5.307a1.62 1.62 0 0 1 1.504-.267l.891.298-6.613 7.717a3.25 3.25 0 0 1-2.432 1.101H3.199v-9.6zM22.373.8c-.261.003-1.61.062-3.173 1.128C17.678.891 16.362.808 16.051.802L16.003.8h-.006a4.76 4.76 0 0 0-3.39 1.405c-.906.907-1.406 2.112-1.406 3.395s.501 2.488 1.378 3.366l5.462 5.738a1.62 1.62 0 0 0 1.16.493 1.6 1.6 0 0 0 1.159-.495l5.434-5.709c.907-.906 1.406-2.11 1.406-3.394s-.501-2.488-1.405-3.394A4.76 4.76 0 0 0 22.403.799zM24 5.6c0 .427-.166.829-.498 1.16L19.2 11.28l-4.331-4.549c-.302-.302-.469-.704-.469-1.131s.166-.829.47-1.133A1.56 1.56 0 0 1 15.966 4c.04.002.803.051 1.707.776q.195.156.395.355l1.131 1.131 1.131-1.131q.201-.2.395-.355c.846-.68 1.562-.765 1.683-.774A1.59 1.59 0 0 1 23.999 5.6z"/>
    </symbol>
    <symbol id="icon-instagram" viewBox="0 0 32 32">
      <path d="M15.998 6.161c3.206 0 3.585.014 4.846.071 1.172.052 1.804.248 2.226.412.558.216.961.478 1.378.895.422.422.679.82.9 1.378.164.422.361 1.059.412 2.226.056 1.266.071 1.645.071 4.847s-.014 3.585-.071 4.847c-.052 1.172-.248 1.804-.412 2.227a3.7 3.7 0 0 1-.895 1.377c-.422.422-.82.679-1.378.9-.422.164-1.06.361-2.226.412-1.266.056-1.645.071-4.847.071s-3.585-.014-4.847-.071c-1.172-.052-1.804-.248-2.226-.412a3.7 3.7 0 0 1-1.378-.895 3.8 3.8 0 0 1-.9-1.378c-.164-.422-.361-1.06-.412-2.226-.056-1.266-.071-1.645-.071-4.847s.014-3.585.071-4.847c.052-1.172.248-1.804.412-2.226.216-.558.478-.961.895-1.378.422-.422.82-.679 1.378-.9.422-.164 1.059-.361 2.226-.412 1.261-.056 1.641-.071 4.847-.071zm0-2.16c-3.258 0-3.665.014-4.945.071-1.275.056-2.151.262-2.91.558a5.85 5.85 0 0 0-2.127 1.387A5.9 5.9 0 0 0 4.629 8.14c-.295.764-.502 1.636-.558 2.91C4.015 12.335 4 12.742 4 15.999s.014 3.665.071 4.945c.056 1.275.262 2.151.558 2.91a5.9 5.9 0 0 0 1.387 2.127 5.9 5.9 0 0 0 2.123 1.383c.764.295 1.636.502 2.91.558 1.279.056 1.687.071 4.945.071s3.666-.014 4.945-.071c1.275-.056 2.151-.262 2.91-.558.787-.305 1.458-.717 2.123-1.383s1.078-1.336 1.383-2.123c.295-.764.502-1.635.558-2.91.056-1.279.071-1.687.071-4.945s-.014-3.665-.071-4.945c-.056-1.275-.262-2.151-.558-2.91a5.6 5.6 0 0 0-1.373-2.133 5.9 5.9 0 0 0-2.123-1.383c-.764-.295-1.635-.502-2.91-.558-1.284-.061-1.692-.075-4.949-.075L15.999 4z"/>
      <path d="M15.998 9.836a6.164 6.164 0 1 0 6.163 6.163 6.164 6.164 0 0 0-6.163-6.163m0 10.161a3.998 3.998 0 1 1 0-7.996 3.998 3.998 0 0 1 0 7.996m7.845-10.405a1.439 1.439 0 1 1-2.877 0 1.439 1.439 0 0 1 2.877 0"/>
    </symbol>
    <symbol id="icon-leaf" viewBox="0 0 32 32">
      <path d="m29.173 2.867-1.6.533a18.45 18.45 0 0 1-8.547.853 15.83 15.83 0 0 0-8.907 1.2 9.64 9.64 0 0 0-5.72 7.214 11.53 11.53 0 0 0 1.96 8.8c-.08.28-.16.56-.227.84a30 30 0 0 0-.8 7.027h2.667c.125-1.936.388-3.861.787-5.76a12.34 12.34 0 0 0 6.027 1.48 14.7 14.7 0 0 0 5.707-1.16c10.147-4.333 8.813-18.747 8.813-19.347zM19.48 21.44c-3.48 1.48-7.64 1.227-9.973-.6a18.4 18.4 0 0 1 1.613-3.787 13.6 13.6 0 0 1 1.853-2.387 12 12 0 0 1 2.413-1.893 16 16 0 0 1 5.947-2.107V9.333a15.24 15.24 0 0 0-7.013 1.44 13.7 13.7 0 0 0-5.493 4.867 20 20 0 0 0-1.333 2.493 9.34 9.34 0 0 1-.507-4.973 6.99 6.99 0 0 1 4.187-5.334 11.9 11.9 0 0 1 5.093-1.12c.827 0 1.64.08 2.493.147a21.6 21.6 0 0 0 8-.467c-.093 3.68-.76 12.28-7.28 15.053z"/>
    </symbol>
    <symbol id="icon-linkedin" viewBox="0 0 32 32">
      <path d="M25.75 4H6.25A2.257 2.257 0 0 0 4 6.25v19.5A2.257 2.257 0 0 0 6.25 28h19.5A2.257 2.257 0 0 0 28 25.75V6.25A2.257 2.257 0 0 0 25.75 4M13 23.5h-3V13h3zm-1.5-12a1.5 1.5 0 1 1-.001-2.999A1.5 1.5 0 0 1 11.5 11.5m12 12h-3v-6a1.5 1.5 0 1 0-3 0v6h-3V13h3v1.861c.619-.848 1.565-1.861 2.625-1.861 1.866 0 3.375 1.679 3.375 3.75z"/>
    </symbol>
    <symbol id="icon-map" viewBox="0 0 32 32">
      <path d="M16 18.667c2.941 0 5.333-2.392 5.333-5.333S18.941 8.001 16 8.001s-5.333 2.392-5.333 5.333 2.392 5.333 5.333 5.333m0-8c1.471 0 2.667 1.196 2.667 2.667S17.471 16.001 16 16.001s-2.667-1.196-2.667-2.667 1.196-2.667 2.667-2.667"/>
      <path d="M15.227 29.085a1.33 1.33 0 0 0 1.546 0c.405-.287 9.932-7.165 9.893-15.752 0-5.881-4.785-10.667-10.667-10.667S5.332 7.451 5.332 13.326c-.039 8.593 9.488 15.472 9.893 15.759zM16 5.333c4.412 0 8 3.588 8 8.007.028 5.917-5.851 11.231-8 12.973-2.148-1.744-8.028-7.059-8-12.98 0-4.412 3.588-8 8-8"/>
    </symbol>
    <symbol id="icon-menu" viewBox="0 0 32 32">
      <path d="M5.333 8h21.333v2.667H5.333zm0 6.667h21.333v2.667H5.333zm0 6.666h21.333V24H5.333z"/>
    </symbol>
    <symbol id="icon-space-X" viewBox="0 0 32 32">
      <path d="M22.901 5.657h3.68l-8.04 9.037L28 26.991h-7.406l-5.801-7.458-6.637 7.458H4.474l8.6-9.666L4 5.657h7.594l5.243 6.817zM21.61 24.824h2.039L10.486 7.709H8.298z"/>
    </symbol>
    <symbol id="icon-phone" viewBox="0 0 32 32">
      <path d="M23.61 16.391a1.34 1.34 0 0 0-.942-.391 1.33 1.33 0 0 0-.942.391l-2.125 2.125c-.985-.293-2.824-.96-3.989-2.125s-1.832-3.004-2.125-3.989l2.125-2.125a1.34 1.34 0 0 0 .391-.942 1.33 1.33 0 0 0-.391-.942L10.279 3.06a1.34 1.34 0 0 0-.942-.391 1.33 1.33 0 0 0-.942.391L4.779 6.676a2.66 2.66 0 0 0-.781 1.913c.031 1.899.533 8.493 5.731 13.691s11.792 5.699 13.692 5.731h.037c.704 0 1.369-.277 1.873-.781l3.616-3.616a1.34 1.34 0 0 0 .391-.942 1.33 1.33 0 0 0-.391-.942l-5.333-5.335zm-.17 8.949c-1.664-.028-7.357-.475-11.831-4.949C7.121 15.903 6.686 10.19 6.66 8.559l2.673-2.673 3.448 3.448-1.724 1.724a1.33 1.33 0 0 0-.362 1.216c.032.153.815 3.789 3.028 6.003s5.849 2.996 6.003 3.028a1.32 1.32 0 0 0 1.216-.361l1.725-1.724 3.448 3.448-2.675 2.673z"/>
    </symbol>
    <symbol id="icon-close" viewBox="0 0 32 32">
      <path d="m21.589 8.459-5.657 5.656-5.656-5.656-1.885 1.885L14.047 16l-5.656 5.656 1.885 1.885 5.656-5.656 5.657 5.656 1.885-1.885L17.818 16l5.656-5.656z"/>
    </symbol>
    <symbol id="icon-youtube" viewBox="0 0 32 32">
      <path d="M28.791 9.604a3.35 3.35 0 0 0-2.35-2.354C24.353 6.677 16 6.667 16 6.667s-8.352-.009-10.441.539a3.42 3.42 0 0 0-2.354 2.371c-.551 2.088-.556 6.419-.556 6.419s-.005 4.352.541 6.419a3.34 3.34 0 0 0 2.351 2.353c2.109.573 10.44.583 10.44.583s8.353.009 10.441-.537a3.36 3.36 0 0 0 2.356-2.35c.552-2.087.556-6.416.556-6.416s.027-4.353-.543-6.441zM13.328 20.007l.007-8 6.943 4.007z"/>
    </symbol>
  </defs>
</svg>